# xmcd
#
# Track frame offsets:
#	150
#	9870
#	24196
#	38031
#	47290
#	60211
#	71884
#	77911
#	86557
#	99829
#	110505
#	121476
#	132028
#	144180
#	155515
#	165642
#	179670
#	188545
#	196205
#	210808
#	219834
#	229569
#	236684
#	246416
#	259276
#	269781
#	282523
#	293854
#	303702
#	314640
#	328920
#	343326
#	352089
#
# Disc length: 4783 seconds
#
# Revision: 0
# Processed by: cddbd v1.5.1PL2 Copyright (c) Steve Scherf et al.
# Submitted via: EasyCDDAExtractor 9.0.0.1
#
DISCID=e312ad21
DTITLE=DJ L.A.S - Who is the number one RnB? Vol 3
DYEAR=2003
DGENRE=RnB
TTITLE0=DJ LAS - "Intro"
TTITLE1=ATHENA CAGE Feat. LIL'ZANE - "Hey hey (remix)"
TTITLE2=BRANDY - "What about us"
TTITLE3=FRONT STREET - "The spot"
TTITLE4=B2K Feat. NAZKAR - "Uh huh (remix)"
TTITLE5=CRAIG DAVID Feat. MOS DEF - "7 days (remix)"
TTITLE6=DJ LAS - "Interlude"
TTITLE7=RELL Feat. BEANIE SIGEL - "My baby (remix)"
TTITLE8=NAUGHTY BY NATURE Feat. 3LW - "Feels good"
TTITLE9=DAWN ROBINSON - "Envious"
TTITLE10=BELL BIV DEVOE - "Shorty gon get it"
TTITLE11=BEATNUTS - "Corona kings"
TTITLE12=BEENIE MAN Feat. SIAMESE - "Dirty harry's revenge"
TTITLE13=ATHENA CAGE - "All i need is me (remix)"
TTITLE14=MONTELL JORDAN - "Bootleg"
TTITLE15=ASHANTI - "Foolish"
TTITLE16=DJ LAS - "Intro"
TTITLE17=NAS Feat. MARY J BLIGE - "Braveheart party"
TTITLE18=MS JADE Feat. TWEET - "Feel the girl"
TTITLE19=MIS-TEEQ - "With me"
TTITLE20=PROPHET JONES - "Doin' me"
TTITLE21=DJ LAS - "Interlude"
TTITLE22=ALI Feat. MURPHY LEE - "Boo ghetto"
TTITLE23=SOOPAFLY - "Gotta get dis money"
TTITLE24=DR DRE Feat. MISSY ELLIOT - "Knoc"
TTITLE25=BLAKE - "Ghetto boys"
TTITLE26=P. DIDDY Feat. USHER and LOON - "I need a girl (remix)"
TTITLE27=USHER - "I wanna know"
TTITLE28=LIL'ROMEO Feat. NICK LANNON and 3LW - "Parents don't understand (remix)
TTITLE28="
TTITLE29=MARY J BLIGE Feat. COMMON - "Dance for me (remix)"
TTITLE30=JERMAINE DUPRI Feat. JAGGED EDGE - "World is your and mine"
TTITLE31=DE LA SOUL and DV ALIAS KHRYST - "Time 4 da true"
TTITLE32=DJ LAS - "Outro"
EXTD=
EXTT0=
EXTT1=
EXTT2=
EXTT3=
EXTT4=
EXTT5=
EXTT6=
EXTT7=
EXTT8=
EXTT9=
EXTT10=
EXTT11=
EXTT12=
EXTT13=
EXTT14=
EXTT15=
EXTT16=
EXTT17=
EXTT18=
EXTT19=
EXTT20=
EXTT21=
EXTT22=
EXTT23=
EXTT24=
EXTT25=
EXTT26=
EXTT27=
EXTT28=
EXTT29=
EXTT30=
EXTT31=
EXTT32=
PLAYORDER=
